<svg width="388" height="61" viewBox="0 0 388 61" fill="none" xmlns="http://www.w3.org/2000/svg">
    <path d="M0.761719 19.021C1.15723 18.2748 1.78609 17.8219 2.52173 17.4295C12.387 12.1629 22.2461 6.88432 32.0988 1.59389C32.7307 1.25597 33.3842 0.945799 33.9913 0.572206C34.6983 0.141137 35.3549 0.152037 36.0796 0.548423C41.1118 3.25706 46.1483 5.9538 51.189 8.63865C56.6807 11.5812 62.1716 14.5243 67.6619 17.4681C67.918 17.6049 68.1988 17.6941 68.4589 17.8249C69.1846 18.1876 69.5683 18.7822 69.6167 19.5928C69.6237 19.7047 69.6227 19.8177 69.6227 19.9297C69.6227 29.2177 69.6227 38.5056 69.6227 47.7936C69.6227 49.3683 68.7189 50.2036 67.1587 50.1036C66.6606 50.0801 66.1888 49.8726 65.8343 49.5211C65.4799 49.1695 65.268 48.6989 65.2395 48.1999C65.2207 47.9314 65.2296 47.6608 65.2296 47.3903V24.3841C65.2296 23.512 65.2246 23.5051 64.4761 23.9054C55.0709 28.9402 45.6681 33.9786 36.2675 39.0206C35.4854 39.4398 34.7112 39.4467 33.9587 39.0454C27.9074 35.8195 21.8608 32.585 15.8187 29.3419C11.3139 26.9299 6.80772 24.5208 2.30025 22.1148C1.59525 21.7402 1.04352 21.2645 0.761719 20.5054V19.021Z"
          fill="#6735D0"/>
    <path d="M57.0336 39.0546C57.0336 40.0395 56.9811 41.0288 57.0435 42.0094C57.2604 45.4429 55.8163 48.0426 53.6205 50.2339C50.1134 53.7337 45.8842 55.6145 41.3004 56.6026C34.9527 57.9719 28.804 57.1825 22.9089 54.2495C19.9326 52.7683 17.2574 50.817 15.3399 47.8156C14.3337 46.24 13.8107 44.5102 13.8454 42.5545C13.8939 39.8452 13.8652 37.1348 13.8523 34.4244C13.8523 33.8576 13.9296 33.6404 14.4842 33.9618C20.416 37.3921 26.3695 40.7693 32.2805 44.2517C33.884 45.1975 35.4618 45.482 37.1891 44.9847C37.9171 44.7751 38.5143 44.268 39.17 43.8934C44.9343 40.5901 50.6944 37.2767 56.4502 33.9531C56.9979 33.6361 57.0445 33.8923 57.0445 34.3984C57.0267 35.9501 57.0336 37.5018 57.0336 39.0546Z" fill="#6735D0"/>
    <path d="M104.057 44.25H101.174V24.0312H103.681L104.015 26.9136C105.018 24.7831 107.273 23.4881 110.114 23.4881C113.289 23.4881 115.67 25.1591 116.631 27.7909C117.55 25.1591 120.015 23.4881 123.273 23.4881C127.659 23.4881 130.542 26.3288 130.542 31.0075V44.25H127.743V31.5924C127.743 28.1251 125.821 26.0781 122.73 26.0781C119.346 26.0781 117.341 28.6264 117.341 31.7594V44.25H114.5V31.5506C114.5 28.1251 112.537 26.1199 109.487 26.1199C106.104 26.1199 104.057 28.6264 104.057 31.7177V44.25ZM139.222 44.7513C134.92 44.7513 132.371 42.3284 132.371 38.7776C132.371 35.0596 135.212 32.7203 139.932 32.3443L146.616 31.8012V31.1328C146.616 27.1643 144.235 25.911 141.269 25.911C137.76 25.911 135.671 27.4985 135.671 30.2138H133.04C133.04 26.1199 136.382 23.4881 141.353 23.4881C146.032 23.4881 149.457 25.8275 149.457 31.1746V44.25H147.034L146.658 40.6992C145.405 43.2474 142.648 44.7513 139.222 44.7513ZM139.891 42.4119C144.152 42.4119 146.616 39.4459 146.616 35.0596V33.9735L140.643 34.433C136.841 34.7672 135.296 36.4382 135.296 38.694C135.296 41.1587 137.134 42.4119 139.891 42.4119ZM166.618 44.25L158.347 24.0312H161.438L166.66 37.0648C167.203 38.5269 167.746 39.9055 168.122 41.2422C168.498 39.8637 169.041 38.5269 169.626 37.0648L174.931 24.0312H177.897L169.501 44.25H166.618ZM179.791 18.4752C178.621 18.4752 177.66 17.5144 177.66 16.3447C177.66 15.175 178.621 14.1724 179.791 14.1724C180.96 14.1724 181.963 15.175 181.963 16.3447C181.963 17.5144 180.96 18.4752 179.791 18.4752ZM178.37 44.25V24.0312H181.253V44.25H178.37ZM192.82 44.7513C186.888 44.7513 182.919 40.4903 182.919 34.1406C182.919 27.8327 186.846 23.4881 192.611 23.4881C198.083 23.4881 201.801 27.3731 201.801 33.0962V34.5166H185.718C185.927 39.4459 188.517 42.2866 192.862 42.2866C196.162 42.2866 198.292 40.8663 199.044 38.1927H201.801C200.715 42.4537 197.582 44.7513 192.82 44.7513ZM192.611 25.9528C188.81 25.9528 186.303 28.4593 185.802 32.4278H198.919C198.919 28.5428 196.412 25.9528 192.611 25.9528Z"
          fill="#010101"/>
    <path d="M226.936 14.9661L222.842 21.1487H219.082L222.215 14.9661H226.936ZM221.004 44.7931C214.863 44.7931 210.56 40.3232 210.56 33.9317C210.56 27.4567 214.779 22.9868 220.836 22.9868C227.019 22.9868 230.946 27.1225 230.946 33.5557V35.1014L215.406 35.1432C215.782 38.7776 217.703 40.6156 221.087 40.6156C223.886 40.6156 225.724 39.5295 226.309 37.5661H231.029C230.152 42.0777 226.392 44.7931 221.004 44.7931ZM220.878 27.1643C217.87 27.1643 216.032 28.7935 215.531 31.8848H225.891C225.891 29.0441 223.928 27.1643 220.878 27.1643ZM239.75 44.25H234.654V27.8744H230.685V23.6134H234.654V17.1802H239.75V23.6134H243.76V27.8744H239.75V44.25ZM258.835 23.6134H263.931V44.25H259.21L258.835 41.4929C257.581 43.4563 254.908 44.7931 252.151 44.7931C247.388 44.7931 244.589 41.5764 244.589 36.5217V23.6134H249.686V34.7254C249.686 38.6522 251.232 40.2397 254.072 40.2397C257.289 40.2397 258.835 38.3598 258.835 34.433V23.6134ZM275.178 44.7931C269.205 44.7931 265.487 40.4068 265.487 34.0153C265.487 27.582 269.246 22.9868 275.471 22.9868C278.353 22.9868 280.902 24.1983 282.197 26.2452V13.1698H287.251V44.25H282.573L282.238 41.0334C280.985 43.4145 278.312 44.7931 275.178 44.7931ZM276.306 40.1143C279.857 40.1143 282.155 37.5661 282.155 33.8482C282.155 30.1302 279.857 27.5402 276.306 27.5402C272.756 27.5402 270.583 30.172 270.583 33.8482C270.583 37.5243 272.756 40.1143 276.306 40.1143ZM293.022 19.4778C291.267 19.4778 289.889 18.0992 289.889 16.3865C289.889 14.6737 291.267 13.3369 293.022 13.3369C294.693 13.3369 296.072 14.6737 296.072 16.3865C296.072 18.0992 294.693 19.4778 293.022 19.4778ZM290.474 44.25V23.6134H295.57V44.25H290.474ZM304.888 44.7931C300.502 44.7931 297.828 42.2448 297.828 38.3598C297.828 34.5583 300.585 32.1772 305.473 31.8012L311.655 31.3417V30.8822C311.655 28.0833 309.984 26.9554 307.394 26.9554C304.387 26.9554 302.716 28.2086 302.716 30.3809H298.371C298.371 25.911 302.047 22.9868 307.645 22.9868C313.201 22.9868 316.626 25.9946 316.626 31.7177V44.25H312.157L311.781 41.2005C310.903 43.331 308.105 44.7931 304.888 44.7931ZM306.559 40.9498C309.692 40.9498 311.697 39.07 311.697 35.8951V34.809L307.394 35.1432C304.219 35.4356 303.008 36.48 303.008 38.1509C303.008 40.0308 304.261 40.9498 306.559 40.9498ZM324.641 44.25H319.544V23.6134H324.265L324.683 26.287C325.978 24.1983 328.484 22.9868 331.283 22.9868C336.463 22.9868 339.137 26.2035 339.137 31.5506V44.25H334.04V32.762C334.04 29.2948 332.327 27.6238 329.696 27.6238C326.563 27.6238 324.641 29.7961 324.641 33.138V44.25ZM349.073 44.25H343.977V27.8744H340.008V23.6134H343.977V17.1802H349.073V23.6134H353.084V27.8744H349.073V44.25ZM363.192 44.7931C357.051 44.7931 352.748 40.3232 352.748 33.9317C352.748 27.4567 356.967 22.9868 363.024 22.9868C369.207 22.9868 373.134 27.1225 373.134 33.5557V35.1014L357.594 35.1432C357.97 38.7776 359.891 40.6156 363.275 40.6156C366.074 40.6156 367.912 39.5295 368.497 37.5661H373.217C372.34 42.0777 368.58 44.7931 363.192 44.7931ZM363.066 27.1643C360.058 27.1643 358.22 28.7935 357.719 31.8848H368.079C368.079 29.0441 366.116 27.1643 363.066 27.1643Z"
          fill="#6735D0"/>
</svg>
