<svg width="3821" height="1204" viewBox="0 0 3821 1204" fill="none" xmlns="http://www.w3.org/2000/svg">
    <path d="M1564.12 189.405C1568.12 181.876 1574.46 177.306 1581.88 173.347C1681.43 120.205 1780.91 66.9424 1880.33 13.5603C1886.7 10.1506 1893.3 7.02084 1899.42 3.25116C1906.56 -1.09847 1913.18 -0.988476 1920.49 3.01118C1971.27 30.3422 2022.09 57.5532 2072.95 84.6442C2128.37 114.335 2183.77 144.032 2239.17 173.737C2241.75 175.116 2244.59 176.016 2247.21 177.336C2254.53 180.996 2258.41 186.995 2258.89 195.175C2258.96 196.305 2258.95 197.445 2258.95 198.574C2258.95 292.293 2258.95 386.012 2258.95 479.73C2258.95 495.619 2249.84 504.048 2234.09 503.038C2229.07 502.802 2224.31 500.708 2220.73 497.161C2217.15 493.614 2215.01 488.865 2214.73 483.83C2214.54 481.12 2214.63 478.391 2214.63 475.661V243.521C2214.63 234.721 2214.58 234.651 2207.02 238.691C2112.12 289.493 2017.24 340.332 1922.39 391.208C1914.5 395.438 1906.69 395.508 1899.09 391.458C1838.03 358.907 1777.02 326.27 1716.05 293.546C1670.6 269.208 1625.13 244.901 1579.65 220.623C1572.54 216.843 1566.97 212.043 1564.12 204.384V189.405Z"
          fill="#6735D0"/>
    <path d="M2131.91 391.557C2131.91 401.495 2131.38 411.477 2132.01 421.371C2134.2 456.017 2119.63 482.248 2097.47 504.359C2062.08 539.674 2019.41 558.651 1973.16 568.622C1909.11 582.439 1847.06 574.473 1787.58 544.878C1757.55 529.933 1730.55 510.243 1711.21 479.958C1701.05 464.059 1695.78 446.605 1696.13 426.871C1696.62 399.534 1696.33 372.185 1696.2 344.836C1696.2 339.117 1696.98 336.926 1702.57 340.169C1762.43 374.782 1822.5 408.858 1882.14 443.997C1898.32 453.541 1914.24 456.411 1931.67 451.393C1939.02 449.278 1945.04 444.162 1951.66 440.381C2009.82 407.05 2067.94 373.617 2126.02 340.081C2131.55 336.882 2132.02 339.468 2132.02 344.574C2131.84 360.231 2131.91 375.889 2131.91 391.557Z" fill="#6735D0"/>
    <path d="M483.129 1145.13H454.044V941.12H479.335L482.708 970.205C492.824 948.708 515.586 935.641 544.249 935.641C576.284 935.641 600.311 952.501 610.006 979.057C619.279 952.501 644.149 935.641 677.027 935.641C721.286 935.641 750.371 964.304 750.371 1011.51V1145.13H722.129V1017.42C722.129 982.429 702.74 961.775 671.547 961.775C637.404 961.775 617.172 987.487 617.172 1019.1V1145.13H588.508V1016.99C588.508 982.429 568.697 962.196 537.926 962.196C503.783 962.196 483.129 987.487 483.129 1018.68V1145.13ZM854.822 1150.19C811.406 1150.19 785.693 1125.74 785.693 1089.92C785.693 1052.4 814.356 1028.8 861.988 1025L929.43 1019.52V1012.78C929.43 972.734 905.404 960.089 875.476 960.089C840.069 960.089 818.993 976.106 818.993 1003.5H792.437C792.437 962.196 826.159 935.641 876.319 935.641C923.529 935.641 958.094 959.246 958.094 1013.2V1145.13H933.646L929.852 1109.31C917.206 1135.02 889.386 1150.19 854.822 1150.19ZM861.566 1126.59C904.561 1126.59 929.43 1096.66 929.43 1052.4V1041.44L869.153 1046.08C830.795 1049.45 815.199 1066.31 815.199 1089.07C815.199 1113.94 833.746 1126.59 861.566 1126.59ZM1164.98 1145.13L1081.52 941.12H1112.71L1165.4 1072.63C1170.88 1087.39 1176.36 1101.3 1180.15 1114.79C1183.94 1100.88 1189.42 1087.39 1195.33 1072.63L1248.86 941.12H1278.79L1194.06 1145.13H1164.98ZM1314.75 885.059C1302.95 885.059 1293.26 875.364 1293.26 863.561C1293.26 851.759 1302.95 841.642 1314.75 841.642C1326.56 841.642 1336.67 851.759 1336.67 863.561C1336.67 875.364 1326.56 885.059 1314.75 885.059ZM1300.42 1145.13V941.12H1329.51V1145.13H1300.42ZM1463.08 1150.19C1403.23 1150.19 1363.18 1107.2 1363.18 1043.13C1363.18 979.478 1402.8 935.641 1460.97 935.641C1516.19 935.641 1553.71 974.842 1553.71 1032.59V1046.92H1391.42C1393.53 1096.66 1419.66 1125.32 1463.5 1125.32C1496.8 1125.32 1518.3 1110.99 1525.89 1084.01H1553.71C1542.75 1127.01 1511.13 1150.19 1463.08 1150.19ZM1460.97 960.51C1422.62 960.51 1397.32 985.801 1392.27 1025.85H1524.62C1524.62 986.644 1499.33 960.51 1460.97 960.51Z"
          fill="#010101"/>
    <path d="M1841.04 849.651L1799.73 912.036H1761.8L1793.41 849.651H1841.04ZM1781.19 1150.61C1719.22 1150.61 1675.81 1105.51 1675.81 1041.02C1675.81 975.685 1718.38 930.582 1779.5 930.582C1841.88 930.582 1881.51 972.313 1881.51 1037.23V1052.82L1724.7 1053.24C1728.5 1089.92 1747.89 1108.46 1782.03 1108.46C1810.27 1108.46 1828.82 1097.5 1834.72 1077.69H1882.35C1873.5 1123.22 1835.56 1150.61 1781.19 1150.61ZM1779.92 972.734C1749.57 972.734 1731.02 989.173 1725.97 1020.37H1830.5C1830.5 991.702 1810.69 972.734 1779.92 972.734ZM1978.77 1145.13H1927.35V979.9H1887.31V936.905H1927.35V871.992H1978.77V936.905H2019.24V979.9H1978.77V1145.13ZM2179.77 936.905H2231.2V1145.13H2183.57L2179.77 1117.31C2167.13 1137.13 2140.15 1150.61 2112.33 1150.61C2064.28 1150.61 2036.04 1118.16 2036.04 1067.15V936.905H2087.46V1049.03C2087.46 1088.65 2103.06 1104.67 2131.72 1104.67C2164.18 1104.67 2179.77 1085.7 2179.77 1046.08V936.905ZM2353.12 1150.61C2292.84 1150.61 2255.33 1106.36 2255.33 1041.86C2255.33 976.949 2293.26 930.582 2356.07 930.582C2385.15 930.582 2410.87 942.806 2423.93 963.461V831.526H2474.94V1145.13H2427.73L2424.35 1112.68C2411.71 1136.7 2384.73 1150.61 2353.12 1150.61ZM2364.5 1103.4C2400.33 1103.4 2423.51 1077.69 2423.51 1040.18C2423.51 1002.66 2400.33 976.528 2364.5 976.528C2328.67 976.528 2306.75 1003.08 2306.75 1040.18C2306.75 1077.27 2328.67 1103.4 2364.5 1103.4ZM2541.6 895.175C2523.89 895.175 2509.98 881.265 2509.98 863.983C2509.98 846.7 2523.89 833.212 2541.6 833.212C2558.46 833.212 2572.37 846.7 2572.37 863.983C2572.37 881.265 2558.46 895.175 2541.6 895.175ZM2515.88 1145.13V936.905H2567.31V1145.13H2515.88ZM2669.76 1150.61C2625.5 1150.61 2598.52 1124.9 2598.52 1085.7C2598.52 1047.34 2626.34 1023.32 2675.66 1019.52L2738.04 1014.89V1010.25C2738.04 982.008 2721.18 970.627 2695.05 970.627C2664.7 970.627 2647.84 983.272 2647.84 1005.19H2604C2604 960.089 2641.09 930.582 2697.58 930.582C2753.64 930.582 2788.2 960.932 2788.2 1018.68V1145.13H2743.1L2739.31 1114.36C2730.46 1135.86 2702.21 1150.61 2669.76 1150.61ZM2686.62 1111.83C2718.23 1111.83 2738.46 1092.87 2738.46 1060.83V1049.87L2695.05 1053.24C2663.01 1056.19 2650.79 1066.73 2650.79 1083.59C2650.79 1102.56 2663.43 1111.83 2686.62 1111.83ZM2877.5 1145.13H2826.08V936.905H2873.71L2877.92 963.882C2890.99 942.806 2916.28 930.582 2944.52 930.582C2996.79 930.582 3023.77 963.039 3023.77 1016.99V1145.13H2972.34V1029.22C2972.34 994.232 2955.06 977.371 2928.51 977.371C2896.89 977.371 2877.5 999.29 2877.5 1033.01V1145.13ZM3132.46 1145.13H3081.04V979.9H3040.99V936.905H3081.04V871.992H3132.46V936.905H3172.93V979.9H3132.46V1145.13ZM3283.35 1150.61C3221.39 1150.61 3177.97 1105.51 3177.97 1041.02C3177.97 975.685 3220.54 930.582 3281.66 930.582C3344.05 930.582 3383.67 972.313 3383.67 1037.23V1052.82L3226.87 1053.24C3230.66 1089.92 3250.05 1108.46 3284.19 1108.46C3312.44 1108.46 3330.98 1097.5 3336.88 1077.69H3384.52C3375.66 1123.22 3337.73 1150.61 3283.35 1150.61ZM3282.09 972.734C3251.74 972.734 3233.19 989.173 3228.13 1020.37H3332.67C3332.67 991.702 3312.86 972.734 3282.09 972.734Z"
          fill="#6735D0"/>
</svg>
