<svg width="18" height="18" viewBox="0 0 18 18" fill="none" xmlns="http://www.w3.org/2000/svg">
<g clip-path="url(#clip0_3567_4293)">
<path d="M13.5 9C13.5 8.60218 13.658 8.22064 13.9393 7.93934C14.2206 7.65804 14.6022 7.5 15 7.5C15.3978 7.5 15.7794 7.65804 16.0607 7.93934C16.342 8.22064 16.5 8.60218 16.5 9C16.5 9.39782 16.342 9.77936 16.0607 10.0607C15.7794 10.342 15.3978 10.5 15 10.5C14.6022 10.5 14.2206 10.342 13.9393 10.0607C13.658 9.77936 13.5 9.39782 13.5 9ZM13.5 9H4.5M4.5 9C4.5 9.39782 4.34196 9.77936 4.06066 10.0607C3.77936 10.342 3.39782 10.5 3 10.5C2.60218 10.5 2.22064 10.342 1.93934 10.0607C1.65804 9.77936 1.5 9.39782 1.5 9C1.5 8.60218 1.65804 8.22064 1.93934 7.93934C2.22064 7.65804 2.60218 7.5 3 7.5C3.39782 7.5 3.77936 7.65804 4.06066 7.93934C4.34196 8.22064 4.5 8.60218 4.5 9ZM15 4.5C15.3978 4.5 15.7794 4.34196 16.0607 4.06066C16.342 3.77936 16.5 3.39782 16.5 3C16.5 2.60218 16.342 2.22064 16.0607 1.93934C15.7794 1.65804 15.3978 1.5 15 1.5C14.6022 1.5 14.2206 1.65804 13.9393 1.93934C13.658 2.22064 13.5 2.60218 13.5 3C13.5 3.39782 13.658 3.77936 13.9393 4.06066C14.2206 4.34196 14.6022 4.5 15 4.5ZM15 16.5C15.3978 16.5 15.7794 16.342 16.0607 16.0607C16.342 15.7794 16.5 15.3978 16.5 15C16.5 14.6022 16.342 14.2206 16.0607 13.9393C15.7794 13.658 15.3978 13.5 15 13.5C14.6022 13.5 14.2206 13.658 13.9393 13.9393C13.658 14.2206 13.5 14.6022 13.5 15C13.5 15.3978 13.658 15.7794 13.9393 16.0607C14.2206 16.342 14.6022 16.5 15 16.5Z" stroke="black" stroke-width="1.125" stroke-linecap="round" stroke-linejoin="round"/>
<path d="M13.5 3H10.5C9 3 8.25 3.75 8.25 5.25V12.75C8.25 14.25 9 15 10.5 15H13.5" stroke="black" stroke-width="1.125" stroke-linecap="round" stroke-linejoin="round"/>
</g>
<defs>
<clipPath id="clip0_3567_4293">
<rect width="18" height="18" fill="white"/>
</clipPath>
</defs>
</svg>
