<svg width="18" height="18" viewBox="0 0 18 18" fill="none" xmlns="http://www.w3.org/2000/svg">
<path d="M8.4375 15.7852C8.71875 15.7852 9.00586 15.7764 9.29883 15.7588C9.44531 16.1455 9.62695 16.5059 9.84375 16.8398C9.60938 16.8633 9.375 16.8809 9.14062 16.8926C8.90625 16.9043 8.67188 16.9102 8.4375 16.9102C7.65234 16.9102 6.88477 16.8457 6.13477 16.7168C5.91797 16.6816 5.67188 16.6318 5.39648 16.5674C5.12109 16.5029 4.83984 16.418 4.55273 16.3125C4.26562 16.207 3.98438 16.0869 3.70898 15.9521C3.43359 15.8174 3.1875 15.6562 2.9707 15.4688C2.75391 15.2812 2.58105 15.0791 2.45215 14.8623C2.32324 14.6455 2.25586 14.3906 2.25 14.0977V3.97266C2.25 3.70898 2.30566 3.47461 2.41699 3.26953C2.52832 3.06445 2.67773 2.87109 2.86523 2.68945C3.06445 2.49023 3.30176 2.31445 3.57715 2.16211C3.85254 2.00977 4.1543 1.87793 4.48242 1.7666C4.81055 1.65527 5.14746 1.55859 5.49316 1.47656C5.83887 1.39453 6.1875 1.33301 6.53906 1.29199C6.89062 1.25098 7.22461 1.21875 7.54102 1.19531C7.85742 1.17187 8.15625 1.16016 8.4375 1.16016C8.85938 1.16016 9.3252 1.18359 9.83496 1.23047C10.3447 1.27734 10.8574 1.35645 11.373 1.46777C11.8887 1.5791 12.3779 1.7373 12.8408 1.94238C13.3037 2.14746 13.6934 2.39648 14.0098 2.68945C14.1914 2.85938 14.3379 3.05273 14.4492 3.26953C14.5605 3.48633 14.6191 3.7207 14.625 3.97266V9H13.5V5.64258C13.1484 5.85938 12.7646 6.04102 12.3486 6.1875C11.9326 6.33398 11.502 6.45117 11.0566 6.53906C10.6113 6.62695 10.166 6.68848 9.7207 6.72363C9.27539 6.75879 8.84766 6.7793 8.4375 6.78516C8.0332 6.78516 7.6084 6.76758 7.16309 6.73242C6.71777 6.69727 6.26953 6.63281 5.81836 6.53906C5.36719 6.44531 4.93652 6.32812 4.52637 6.1875C4.11621 6.04688 3.73242 5.86523 3.375 5.64258V14.0977C3.375 14.2148 3.41602 14.3232 3.49805 14.4229C3.58008 14.5225 3.66504 14.6045 3.75293 14.6689C4.02832 14.8857 4.3623 15.0645 4.75488 15.2051C5.14746 15.3457 5.56348 15.46 6.00293 15.5479C6.44238 15.6357 6.87305 15.6973 7.29492 15.7324C7.7168 15.7676 8.09766 15.7852 8.4375 15.7852ZM8.4375 2.28516C8.13867 2.28516 7.82812 2.29395 7.50586 2.31152C7.18359 2.3291 6.85547 2.36426 6.52148 2.41699C6.1875 2.46973 5.86523 2.53418 5.55469 2.61035C5.24414 2.68652 4.94824 2.7832 4.66699 2.90039C4.5791 2.93555 4.46191 2.98828 4.31543 3.05859C4.16895 3.12891 4.02539 3.21387 3.88477 3.31348C3.74414 3.41309 3.62402 3.51562 3.52441 3.62109C3.4248 3.72656 3.375 3.84375 3.375 3.97266C3.375 4.01953 3.38379 4.06348 3.40137 4.10449C3.41895 4.14551 3.44238 4.18652 3.47168 4.22754C3.60059 4.41504 3.78516 4.58203 4.02539 4.72852C4.26562 4.875 4.53516 5.00098 4.83398 5.10645C5.13281 5.21191 5.44922 5.2998 5.7832 5.37012C6.11719 5.44043 6.44824 5.49609 6.77637 5.53711C7.10449 5.57812 7.40918 5.61035 7.69043 5.63379C7.97168 5.65723 8.2207 5.66602 8.4375 5.66016C8.64258 5.66016 8.88867 5.65137 9.17578 5.63379C9.46289 5.61621 9.77051 5.58691 10.0986 5.5459C10.4268 5.50488 10.7549 5.44629 11.083 5.37012C11.4111 5.29395 11.7305 5.20605 12.041 5.10645C12.3516 5.00684 12.6182 4.88379 12.8408 4.7373C13.0635 4.59082 13.251 4.4209 13.4033 4.22754C13.4326 4.18652 13.4561 4.14551 13.4736 4.10449C13.4912 4.06348 13.5 4.01953 13.5 3.97266C13.5 3.84961 13.4502 3.73242 13.3506 3.62109C13.251 3.50977 13.1309 3.40723 12.9902 3.31348C12.8496 3.21973 12.7061 3.1377 12.5596 3.06738C12.4131 2.99707 12.2959 2.94141 12.208 2.90039C11.9326 2.78906 11.6367 2.69531 11.3203 2.61914C11.0039 2.54297 10.6816 2.47852 10.3535 2.42578C10.0254 2.37305 9.7002 2.33789 9.37793 2.32031C9.05566 2.30273 8.74219 2.29102 8.4375 2.28516ZM16.8223 13.5264C16.8574 13.7021 16.875 13.8809 16.875 14.0625C16.875 14.2441 16.8574 14.4229 16.8223 14.5986L17.9121 15.0469L17.4814 16.0928L16.3916 15.6357C16.1865 15.9346 15.9346 16.1865 15.6357 16.3916L16.0928 17.4814L15.0469 17.9121L14.5986 16.8223C14.4229 16.8574 14.2441 16.875 14.0625 16.875C13.8809 16.875 13.7021 16.8574 13.5264 16.8223L13.0781 17.9121L12.0322 17.4814L12.4893 16.3916C12.1904 16.1865 11.9385 15.9346 11.7334 15.6357L10.6436 16.0928L10.2129 15.0469L11.3027 14.5986C11.2676 14.4229 11.25 14.2441 11.25 14.0625C11.25 13.8809 11.2676 13.7021 11.3027 13.5264L10.2129 13.0781L10.6436 12.0322L11.7334 12.4893C11.9385 12.1904 12.1904 11.9385 12.4893 11.7334L12.0322 10.6436L13.0781 10.2129L13.5264 11.3027C13.7021 11.2676 13.8809 11.25 14.0625 11.25C14.2441 11.25 14.4229 11.2676 14.5986 11.3027L15.0469 10.2129L16.0928 10.6436L15.6357 11.7334C15.9346 11.9385 16.1865 12.1904 16.3916 12.4893L17.4814 12.0322L17.9121 13.0781L16.8223 13.5264ZM14.0625 15.75C14.2969 15.75 14.5166 15.7061 14.7217 15.6182C14.9268 15.5303 15.1055 15.4102 15.2578 15.2578C15.4102 15.1055 15.5303 14.9268 15.6182 14.7217C15.7061 14.5166 15.75 14.2969 15.75 14.0625C15.75 13.8281 15.7061 13.6084 15.6182 13.4033C15.5303 13.1982 15.4102 13.0195 15.2578 12.8672C15.1055 12.7148 14.9268 12.5947 14.7217 12.5068C14.5166 12.4189 14.2969 12.375 14.0625 12.375C13.8281 12.375 13.6084 12.4189 13.4033 12.5068C13.1982 12.5947 13.0195 12.7148 12.8672 12.8672C12.7148 13.0195 12.5947 13.1982 12.5068 13.4033C12.4189 13.6084 12.375 13.8281 12.375 14.0625C12.375 14.2969 12.4189 14.5166 12.5068 14.7217C12.5947 14.9268 12.7148 15.1055 12.8672 15.2578C13.0195 15.4102 13.1982 15.5303 13.4033 15.6182C13.6084 15.7061 13.8281 15.75 14.0625 15.75Z" fill="black"/>
</svg>
