<svg width="18" height="18" viewBox="0 0 18 18" fill="none" xmlns="http://www.w3.org/2000/svg">
<g clip-path="url(#clip0_3567_4316)">
<path d="M9 16.5C13.1421 16.5 16.5 13.1421 16.5 9C16.5 4.85786 13.1421 1.5 9 1.5C4.85786 1.5 1.5 4.85786 1.5 9C1.5 13.1421 4.85786 16.5 9 16.5Z" stroke="black" stroke-width="1.125"/>
<path d="M9 12C10.6569 12 12 10.6569 12 9C12 7.34315 10.6569 6 9 6C7.34315 6 6 7.34315 6 9C6 10.6569 7.34315 12 9 12Z" stroke="black" stroke-width="1.125"/>
<path opacity="0.5" d="M11.25 6.75L14.25 3.75M3.75 14.25L6.75 11.25M6.75 6.75L3.75 3.75M14.25 14.25L11.25 11.25" stroke="black" stroke-width="1.125"/>
</g>
<defs>
<clipPath id="clip0_3567_4316">
<rect width="18" height="18" fill="white"/>
</clipPath>
</defs>
</svg>
