<svg width="18" height="18" viewBox="0 0 18 18" fill="none" xmlns="http://www.w3.org/2000/svg">
<g clip-path="url(#clip0_3567_4270)">
<path d="M12.7276 10.83C13.7551 11.0025 14.8876 10.8225 15.6826 10.29C16.7401 9.585 16.7401 8.43 15.6826 7.725C14.8801 7.1925 13.7326 7.0125 12.7051 7.1925M5.25008 10.83C4.22258 11.0025 3.09008 10.8225 2.29508 10.29C1.23758 9.585 1.23758 8.43 2.29508 7.725C3.09758 7.1925 4.24508 7.0125 5.27258 7.1925M13.5001 5.37C13.4529 5.36249 13.4048 5.36249 13.3576 5.37C12.8571 5.3519 12.3832 5.13991 12.0361 4.77882C11.689 4.41774 11.4959 3.93585 11.4976 3.435C11.4976 2.3625 12.3601 1.5 13.4326 1.5C13.9458 1.5 14.4379 1.70387 14.8008 2.06675C15.1637 2.42963 15.3676 2.92181 15.3676 3.435C15.3662 3.93621 15.1711 4.41747 14.823 4.77811C14.475 5.13875 14.0009 5.35084 13.5001 5.37ZM4.47758 5.37C4.52258 5.3625 4.57508 5.3625 4.62008 5.37C5.1206 5.3519 5.59448 5.13991 5.94157 4.77882C6.28866 4.41774 6.48177 3.93585 6.48008 3.435C6.48008 2.3625 5.61758 1.5 4.54508 1.5C4.03188 1.5 3.53971 1.70387 3.17683 2.06675C2.81394 2.42963 2.61008 2.92181 2.61008 3.435C2.61758 4.485 3.44258 5.3325 4.47758 5.37ZM9.00008 10.9725C8.95287 10.965 8.90478 10.965 8.85758 10.9725C8.35705 10.9544 7.88317 10.7424 7.53608 10.3813C7.18899 10.0202 6.99589 9.53835 6.99758 9.0375C6.99758 7.965 7.86008 7.1025 8.93258 7.1025C9.44577 7.1025 9.93795 7.30637 10.3008 7.66925C10.6637 8.03213 10.8676 8.52431 10.8676 9.0375C10.8601 10.0875 10.0351 10.9425 9.00008 10.9725ZM6.81758 13.335C5.76008 14.04 5.76008 15.195 6.81758 15.9C8.01758 16.7025 9.98258 16.7025 11.1826 15.9C12.2401 15.195 12.2401 14.04 11.1826 13.335C9.99008 12.54 8.01758 12.54 6.81758 13.335Z" stroke="black" stroke-width="1.125" stroke-linecap="round" stroke-linejoin="round"/>
</g>
<defs>
<clipPath id="clip0_3567_4270">
<rect width="18" height="18" fill="white"/>
</clipPath>
</defs>
</svg>
